<svg width="267" height="50" viewBox="0 0 267 50" fill="none" xmlns="http://www.w3.org/2000/svg">
<path d="M0 23.2515H22.3377C28.7288 23.2515 33.9099 28.4326 33.9099 34.8237C33.9099 41.2149 28.7288 46.3959 22.3377 46.3959H0V23.2515Z" fill="#7922E6"/>
<path d="M0 3H14.9103C19.7037 3 23.5895 6.88579 23.5895 11.6791C23.5895 16.4725 19.7037 20.3583 14.9103 20.3583H0V3Z" fill="#9D32FA"/>
<path d="M44.6662 46V3.81818H61.5554C64.6586 3.81818 67.2469 4.27817 69.3203 5.19815C71.3937 6.11813 72.9522 7.39512 73.9957 9.02912C75.0393 10.6494 75.5611 12.5168 75.5611 14.6314C75.5611 16.2791 75.2315 17.7277 74.5724 18.9773C73.9134 20.2131 73.0071 21.2292 71.8537 22.0256C70.714 22.8082 69.4096 23.3643 67.9403 23.6939V24.1058C69.5469 24.1745 71.0504 24.6276 72.451 25.4652C73.8653 26.3028 75.0118 27.4768 75.8906 28.9872C76.7694 30.4839 77.2088 32.2689 77.2088 34.3423C77.2088 36.5805 76.6527 38.5784 75.5405 40.3359C74.442 42.0798 72.8149 43.4598 70.6591 44.4759C68.5033 45.492 65.8464 46 62.6882 46H44.6662ZM53.5845 38.7088H60.8551C63.3404 38.7088 65.1529 38.2351 66.2926 37.2876C67.4323 36.3265 68.0021 35.0495 68.0021 33.4567C68.0021 32.2895 67.7206 31.2597 67.1577 30.3672C66.5947 29.4747 65.7914 28.7744 64.7479 28.2663C63.718 27.7583 62.4891 27.5043 61.0611 27.5043H53.5845V38.7088ZM53.5845 21.4695H60.196C61.4181 21.4695 62.5028 21.2566 63.4503 20.831C64.4115 20.3916 65.1667 19.7737 65.7159 18.9773C66.2789 18.1809 66.5604 17.2266 66.5604 16.1143C66.5604 14.5902 66.018 13.3613 64.9332 12.4276C63.8622 11.4938 62.3381 11.027 60.3608 11.027H53.5845V21.4695ZM109.067 3.81818H117.985V31.2116C117.985 34.2874 117.25 36.9787 115.781 39.2855C114.326 41.5923 112.287 43.3911 109.664 44.6818C107.041 45.9588 103.986 46.5973 100.498 46.5973C96.997 46.5973 93.935 45.9588 91.3123 44.6818C88.6897 43.3911 86.6506 41.5923 85.1951 39.2855C83.7396 36.9787 83.0119 34.2874 83.0119 31.2116V3.81818H91.9302V30.4496C91.9302 32.0561 92.2804 33.4841 92.9806 34.7337C93.6947 35.9832 94.697 36.965 95.9877 37.679C97.2785 38.393 98.782 38.75 100.498 38.75C102.229 38.75 103.732 38.393 105.009 37.679C106.3 36.965 107.295 35.9832 107.996 34.7337C108.71 33.4841 109.067 32.0561 109.067 30.4496V3.81818ZM122.851 3.81818H132.84L142.459 21.9844H142.871L152.489 3.81818H162.479L147.093 31.0881V46H138.237V31.0881L122.851 3.81818Z" fill="#7922E6"/>
<path d="M168.405 11.1712V3.81818H203.049V11.1712H190.135V46H181.319V11.1712H168.405ZM217.672 3.81818V46H208.754V3.81818H217.672ZM240.931 31.3352H248.511L252.321 36.2372L256.07 40.6037L263.134 49.4602H254.813L249.952 43.4872L247.46 39.9446L240.931 31.3352ZM263.773 24.9091C263.773 29.509 262.901 33.4223 261.157 36.6491C259.427 39.8759 257.065 42.3407 254.072 44.0433C251.092 45.7322 247.742 46.5767 244.021 46.5767C240.272 46.5767 236.908 45.7254 233.928 44.0227C230.949 42.3201 228.594 39.8554 226.864 36.6286C225.134 33.4018 224.268 29.4953 224.268 24.9091C224.268 20.3092 225.134 16.3958 226.864 13.169C228.594 9.94223 230.949 7.48437 233.928 5.79545C236.908 4.0928 240.272 3.24148 244.021 3.24148C247.742 3.24148 251.092 4.0928 254.072 5.79545C257.065 7.48437 259.427 9.94223 261.157 13.169C262.901 16.3958 263.773 20.3092 263.773 24.9091ZM254.731 24.9091C254.731 21.9295 254.285 19.4167 253.392 17.3707C252.513 15.3248 251.271 13.7732 249.664 12.7159C248.058 11.6586 246.176 11.13 244.021 11.13C241.865 11.13 239.984 11.6586 238.377 12.7159C236.771 13.7732 235.521 15.3248 234.629 17.3707C233.75 19.4167 233.31 21.9295 233.31 24.9091C233.31 27.8887 233.75 30.4015 234.629 32.4474C235.521 34.4934 236.771 36.045 238.377 37.1023C239.984 38.1596 241.865 38.6882 244.021 38.6882C246.176 38.6882 248.058 38.1596 249.664 37.1023C251.271 36.045 252.513 34.4934 253.392 32.4474C254.285 30.4015 254.731 27.8887 254.731 24.9091Z" fill="#9D32FA"/>
</svg>
